<?xml version="1.0" encoding="UTF-8"?> <svg xmlns="http://www.w3.org/2000/svg" id="Layer_1" version="1.1" viewBox="0 0 396.4 99.2"><defs><style> .st0 { fill: #042222; } .st1 { fill: #03624c; } </style></defs><g><path class="st0" d="M109.9,35.5h8.3c1.9,0,3.6.4,5.1,1.1s2.5,1.8,3.3,3.2c.8,1.4,1.1,3,1.1,4.8s-.4,3.4-1.1,4.8c-.8,1.4-1.8,2.4-3.3,3.2-1.4.8-3.1,1.1-5.1,1.1h-2.2v9.9h-6.2v-28.1ZM120.9,48.1c.6-.8.8-1.9.8-3.4s-.3-2.8-.8-3.6-1.4-1.2-2.7-1.2h-2.2v9.3h2.2c1.2,0,2.1-.4,2.6-1.1Z"></path><path class="st0" d="M132.5,35.5h8.4c2,0,3.8.4,5.2,1.1,1.4.7,2.5,1.7,3.2,3,.7,1.3,1.1,2.9,1.1,4.6s-.3,2.9-1,4c-.7,1.1-1.6,2.1-2.8,2.8.6.3,1.1.8,1.5,1.6.4.8.7,1.8,1,3.2l1.7,7.8h-6.2l-1.3-7.6c-.1-.8-.3-1.5-.5-2s-.4-.8-.8-1c-.3-.2-.7-.3-1.3-.3h-2.1v11h-6.2v-28.1ZM143.5,47.2c.5-.7.8-1.7.8-3s-.3-2.5-.8-3.2-1.4-1.1-2.5-1.1h-2.2v8.2h2.2c1.2,0,2-.3,2.6-1Z"></path><path class="st0" d="M160,62.9c-1.5-.8-2.7-2-3.5-3.5-.8-1.5-1.3-3.3-1.3-5.4v-9c0-2.1.4-3.9,1.3-5.4.8-1.5,2-2.7,3.5-3.5,1.5-.8,3.2-1.2,5.3-1.2s3.8.4,5.3,1.2c1.5.8,2.7,2,3.5,3.5.8,1.5,1.3,3.3,1.3,5.4v9c0,2-.4,3.8-1.3,5.4-.8,1.5-2,2.7-3.5,3.5-1.5.8-3.2,1.2-5.3,1.2s-3.8-.4-5.3-1.2ZM168,58.6c.7-.8,1-1.9,1-3.3v-11.4c0-1.4-.3-2.6-1-3.3-.7-.8-1.6-1.1-2.8-1.1s-2.2.4-2.8,1.1c-.7.8-1,1.9-1,3.3v11.4c0,1.4.3,2.6,1,3.3.7.8,1.6,1.1,2.8,1.1s2.2-.4,2.8-1.1Z"></path><path class="st0" d="M180.7,62c-1.4-1.4-2.1-3.5-2.2-6.3l4.7-.6c.1,1.6.4,2.8.9,3.5.5.7,1.2,1.1,2.2,1.1s1.6-.3,2.1-.8c.5-.5.7-1.3.7-2.4v-21h6.2v19.8c0,2.8-.8,5-2.3,6.6-1.5,1.6-3.6,2.3-6.2,2.3s-4.7-.7-6.1-2.1Z"></path><path class="st0" d="M201.1,35.5h14.4v4.4h-8.2v7.1h7.6v4.5h-7.6v7.7h8.6v4.4h-14.8v-28.1Z"></path><path class="st0" d="M225.1,62.9c-1.5-.8-2.6-2-3.4-3.5-.8-1.5-1.2-3.3-1.2-5.4v-8.9c0-3.2.9-5.6,2.6-7.4,1.7-1.8,4.2-2.7,7.4-2.7s3.5.3,4.9,1c1.4.7,2.4,1.7,3.2,3.2.8,1.4,1.2,3.2,1.4,5.3l-4.7.5c-.1-1.3-.3-2.3-.6-3.1-.3-.8-.7-1.4-1.3-1.8-.6-.4-1.3-.7-2.3-.7-1.4,0-2.5.4-3.2,1.1-.7.8-1.1,1.9-1.1,3.3v11.2c0,1.5.3,2.6,1,3.4.7.8,1.7,1.2,3.1,1.2s1.8-.2,2.4-.7c.6-.5,1.1-1.2,1.4-2,.3-.9.5-2,.6-3.3l4.8.6c-.2,3.3-1.2,5.7-2.7,7.4-1.6,1.7-3.9,2.5-7,2.5s-3.7-.4-5.2-1.3Z"></path><path class="st0" d="M249.2,39.9h-5.7v-4.4h17.4v4.4h-5.7v23.7h-6.1v-23.7Z"></path><path class="st0" d="M279,62.2c-1.5-1.3-2.4-3.3-2.6-6.1l4.8-.5c.2,1.4.6,2.5,1.2,3.2s1.5,1,2.8,1,2.1-.3,2.7-.8.9-1.4.9-2.5-.2-1.4-.5-1.9c-.3-.5-.8-1.1-1.6-1.6-.7-.5-1.8-1.1-3.3-1.8-1.6-.8-2.8-1.6-3.8-2.4-.9-.8-1.6-1.7-2.1-2.7-.4-1-.7-2.1-.7-3.5s.4-2.8,1.1-4c.7-1.1,1.7-2,3-2.7,1.3-.6,2.8-.9,4.5-.9,2.6,0,4.6.6,6.1,1.8,1.4,1.2,2.3,3,2.5,5.4l-4.6.5c-.2-1.1-.6-2-1.1-2.5-.5-.6-1.3-.8-2.4-.8s-1.7.2-2.2.7c-.5.5-.8,1.1-.8,1.9s.2,1.2.5,1.7.8,1,1.5,1.4c.7.5,1.7,1,3.1,1.6,1.7.8,3,1.6,4,2.5,1,.9,1.7,1.9,2.2,3,.4,1.1.7,2.3.7,3.8,0,2.7-.8,4.7-2.5,6.1-1.6,1.4-3.9,2.1-6.8,2.1s-5.1-.7-6.6-2Z"></path><path class="st0" d="M304.6,62.9c-1.5-.8-2.7-2-3.5-3.5-.8-1.5-1.3-3.3-1.3-5.4v-9c0-2.1.4-3.9,1.3-5.4.8-1.5,2-2.7,3.5-3.5,1.5-.8,3.2-1.2,5.3-1.2s3.8.4,5.3,1.2c1.5.8,2.7,2,3.5,3.5.8,1.5,1.3,3.3,1.3,5.4v9c0,2-.4,3.8-1.3,5.4-.8,1.5-2,2.7-3.5,3.5-1.5.8-3.2,1.2-5.3,1.2s-3.8-.4-5.3-1.2ZM312.7,58.6c.7-.8,1-1.9,1-3.3v-11.4c0-1.4-.3-2.6-1-3.3-.7-.8-1.6-1.1-2.8-1.1s-2.2.4-2.8,1.1c-.7.8-1,1.9-1,3.3v11.4c0,1.4.3,2.6,1,3.3.7.8,1.6,1.1,2.8,1.1s2.2-.4,2.8-1.1Z"></path><path class="st0" d="M325.6,35.5h6.2v23.7h7.9v4.4h-14.1v-28.1Z"></path><path class="st0" d="M350.4,35.5h7.3l7.2,28.1h-6.4l-1.4-6h-7l-1.4,6h-5.3l6.9-28.1ZM356.4,53.5l-2.7-11.8-2.7,11.8h5.4Z"></path><path class="st0" d="M369.2,35.5h8.4c2,0,3.8.4,5.2,1.1,1.4.7,2.5,1.7,3.2,3,.7,1.3,1.1,2.9,1.1,4.6s-.3,2.9-1,4c-.7,1.1-1.6,2.1-2.8,2.8.6.3,1.1.8,1.5,1.6.4.8.7,1.8,1,3.2l1.7,7.8h-6.2l-1.3-7.6c-.1-.8-.3-1.5-.5-2s-.4-.8-.8-1c-.3-.2-.7-.3-1.3-.3h-2.1v11h-6.2v-28.1ZM380.2,47.2c.5-.7.8-1.7.8-3s-.3-2.5-.8-3.2-1.4-1.1-2.5-1.1h-2.2v8.2h2.2c1.2,0,2-.3,2.6-1Z"></path></g><g><polygon class="st1" points="73.1 69.7 69.4 69.7 69.4 44.9 49.3 24.8 29.7 44.4 29.7 69.7 25.9 69.7 25.9 42.9 49.3 19.5 73.1 43.3 73.1 69.7"></polygon><polygon class="st1" points="51.2 46.7 27.8 46.7 27.8 42.9 47.5 42.9 47.5 22.1 51.2 22.1 51.2 46.7"></polygon><path class="st1" d="M49.5,10.7c21.5,0,38.9,17.5,38.9,38.9s-17.5,38.9-38.9,38.9S10.6,71.1,10.6,49.6,28.1,10.7,49.5,10.7M49.5,6.9C26,6.9,6.9,26,6.9,49.6s19.1,42.7,42.7,42.7,42.7-19.1,42.7-42.7S73.1,6.9,49.5,6.9h0Z"></path><polygon class="st1" points="45.7 69.2 43.3 69.2 43.3 54.5 51.2 54.5 51.2 56.9 45.7 56.9 45.7 69.2"></polygon></g></svg>